<?xml version="1.0" encoding="utf-8"?>
<!-- Generator: Adobe Illustrator 23.0.3, SVG Export Plug-In . SVG Version: 6.00 Build 0)  -->
<svg version="1.1" id="Layer_1" xmlns="http://www.w3.org/2000/svg" xmlns:xlink="http://www.w3.org/1999/xlink" x="0px" y="0px"
	 viewBox="0 0 595.3 588.3" style="enable-background:new 0 0 595.3 588.3;" xml:space="preserve">
<style type="text/css">
	.st0{fill:#7EA240;}
	.st1{fill:#781214;}
</style>
<g>
	<path class="st0" d="M295.7,567.8c-79.8,0-155-34.9-206.5-95.8c-30.7-36.3-51.3-80.1-59.6-126.7l27.6-4.9
		c7.4,41.7,25.9,81,53.4,113.5c46.1,54.6,113.6,85.9,185.1,85.9c26.9,0,53.3-4.4,78.6-13.1l9.1,26.5
		C355.2,562.9,325.6,567.8,295.7,567.8z M469.6,504.3l-18-21.5l0.1-0.1c54.6-46.1,85.9-113.6,85.9-185.1c0-57-20.3-112.5-57.1-156.1
		c-8-9.5-16.9-18.5-26.2-26.6l18.4-21.1c10.4,9.1,20.2,19,29.2,29.6c41.1,48.7,63.8,110.5,63.8,174.2c0,79.8-34.9,155-95.8,206.5
		L469.6,504.3z M57.9,251.5l-27.5-5.3c5.7-29.6,16.3-57.8,31.3-83.8c15.6-26.9,35.6-50.8,59.6-71c48.7-41.1,110.5-63.8,174.2-63.8
		c31.4,0,62.3,5.4,91.8,16l-9.5,26.3c-26.4-9.5-54.1-14.3-82.3-14.3c-57,0-112.5,20.3-156.1,57.1C96.7,148.8,68.5,196.8,57.9,251.5z
		"/>
</g>
<g>
	<path class="st0" d="M295.5,491.2c-107.7,0-195.4-86.8-195.4-193.5c0-106.7,87.6-193.5,195.4-193.5S490.9,191,490.9,297.7
		C490.9,404.4,403.3,491.2,295.5,491.2z M295.5,132.2c-92.3,0-167.4,74.2-167.4,165.5s75.1,165.5,167.4,165.5S462.9,389,462.9,297.7
		S387.8,132.2,295.5,132.2z"/>
</g>
<g>
	<circle class="st1" cx="295.5" cy="297.7" r="114.7"/>
</g>
<g>
	<circle class="st0" cx="295.5" cy="297.7" r="40.7"/>
</g>
</svg>
