<?xml version="1.0" encoding="utf-8"?>
<!-- Generator: Adobe Illustrator 23.0.3, SVG Export Plug-In . SVG Version: 6.00 Build 0)  -->
<svg version="1.1" id="Layer_1" xmlns="http://www.w3.org/2000/svg" xmlns:xlink="http://www.w3.org/1999/xlink" x="0px" y="0px"
	 viewBox="0 0 100 100" style="enable-background:new 0 0 100 100;" xml:space="preserve" width="75px" height="75px" >
<style type="text/css">
	.st0{fill:#7EA240;}
	.st1{fill:#781214;}
</style>
<g>
	<g>
		<path class="st0" d="M49.6,98.2C35.3,98.2,21.8,92,12.5,81C7,74.5,3.3,66.6,1.8,58.3l5-0.9c1.3,7.5,4.7,14.6,9.6,20.4
			c8.3,9.8,20.4,15.4,33.3,15.4c4.8,0,9.6-0.8,14.1-2.4l1.6,4.8C60.3,97.4,55,98.2,49.6,98.2z M80.9,86.8L77.7,83l0,0
			c9.8-8.3,15.4-20.4,15.4-33.3c0-10.2-3.6-20.2-10.3-28c-1.4-1.7-3-3.3-4.7-4.8l3.3-3.8c1.9,1.6,3.6,3.4,5.2,5.3
			c7.4,8.7,11.5,19.9,11.5,31.3C98.2,64,91.9,77.5,80.9,86.8L80.9,86.8z M6.9,41.4l-4.9-1c1-5.3,2.9-10.4,5.6-15.1
			c2.8-4.8,6.4-9.1,10.7-12.8C27.1,5.3,38.2,1.2,49.6,1.2c5.6,0,11.2,1,16.5,2.9l-1.7,4.7c-4.7-1.7-9.7-2.6-14.8-2.6
			c-10.2,0-20.2,3.6-28,10.3C13.9,23,8.8,31.6,6.9,41.4z"/>
	</g>
	<g>
		<path class="st0" d="M49.6,84.5c-19.3,0-35.1-15.6-35.1-34.8s15.7-34.8,35.1-34.8s35.1,15.6,35.1,34.8S69,84.5,49.6,84.5z
			 M49.6,20C33,20,19.5,33.3,19.5,49.7S33,79.4,49.6,79.4s30.1-13.3,30.1-29.7S66.2,20,49.6,20z"/>
	</g>
	<g>
		<circle class="st1" cx="49.6" cy="49.7" r="20.6"/>
	</g>
	<g>
		<circle class="st0" cx="49.6" cy="49.7" r="7.3"/>
	</g>
</g>
</svg>
